<?xml version="1.0" standalone="no"?>
<!DOCTYPE svg PUBLIC "-//W3C//DTD SVG 20010904//EN"
 "http://www.w3.org/TR/2001/REC-SVG-20010904/DTD/svg10.dtd">
<svg version="1.0" xmlns="http://www.w3.org/2000/svg"
 width="2048.000000pt" height="2048.000000pt" viewBox="0 0 2048.000000 2048.000000"
 preserveAspectRatio="xMidYMid meet">

<g transform="translate(0.000000,2048.000000) scale(0.100000,-0.100000)"
fill="#000000" stroke="none">
<path d="M6284 18861 c-61 -16 -174 -91 -624 -416 -913 -659 -1237 -893 -1340
-965 -142 -101 -176 -134 -212 -204 l-31 -61 -18 -900 c-9 -495 -20 -1037 -23
-1205 -7 -333 -22 -1134 -31 -1600 -3 -162 -7 -396 -10 -520 -9 -429 -16 -748
-25 -1275 -6 -291 -15 -755 -20 -1030 -6 -275 -19 -970 -30 -1545 -11 -575
-27 -1394 -35 -1820 -8 -426 -24 -1243 -35 -1815 -27 -1458 -30 -1584 -35
-1815 -3 -113 -7 -362 -10 -555 -3 -192 -7 -420 -10 -505 -14 -471 -17 -879
-6 -913 17 -50 61 -84 123 -96 29 -5 319 -14 643 -20 325 -6 1159 -22 1855
-36 696 -14 1742 -34 2325 -45 2608 -50 3164 -60 3685 -71 855 -17 1169 -17
1202 1 14 8 192 155 395 325 417 351 556 468 1188 999 617 518 622 522 651
566 38 57 41 115 54 870 6 360 17 993 25 1405 8 413 19 993 25 1290 12 662 19
996 25 1315 3 135 12 598 20 1030 25 1362 36 1893 45 2330 7 326 6 428 -3 436
-18 17 -302 28 -315 11 -12 -14 -18 -276 -47 -1852 -9 -445 -26 -1384 -40
-2085 -13 -701 -39 -2015 -56 -2920 -25 -1362 -33 -1649 -45 -1667 -8 -12 -60
-62 -117 -110 -226 -193 -699 -588 -710 -592 -7 -3 -8 124 -4 435 12 734 36
2098 41 2282 3 110 1 172 -5 172 -10 0 -73 -129 -161 -330 -44 -100 -51 -125
-54 -195 -8 -164 -46 -2451 -41 -2480 3 -16 8 -37 12 -46 5 -13 -81 -91 -367
-331 -401 -338 -423 -355 -432 -339 -4 6 -2 256 4 557 7 300 9 549 5 552 -3 3
-12 2 -19 -3 -7 -6 -31 -24 -53 -40 -22 -17 -78 -43 -126 -58 -55 -18 -88 -35
-91 -45 -3 -9 -10 -285 -16 -612 -10 -512 -14 -597 -27 -607 -11 -9 -63 -11
-187 -7 -94 2 -423 9 -731 14 -562 10 -1198 23 -3125 60 -569 11 -1386 27
-1815 35 -429 8 -904 17 -1055 20 -151 3 -387 7 -525 10 -137 3 -365 7 -505
10 -140 3 -498 10 -795 16 -392 7 -543 13 -554 22 -15 13 -16 -93 14 1462 25
1273 35 1770 45 2305 5 283 12 634 15 780 3 146 7 375 10 510 3 135 7 362 10
505 3 143 14 726 25 1295 21 1119 27 1464 35 1805 3 121 7 364 10 540 3 176 7
417 10 535 3 118 7 350 10 515 3 165 8 401 10 525 3 124 10 466 15 760 6 294
17 884 25 1310 8 426 19 1016 25 1310 12 671 20 950 26 973 5 15 20 17 132 17
134 0 1014 -15 1437 -25 138 -3 480 -10 760 -15 281 -5 625 -12 765 -15 140
-3 602 -12 1025 -20 424 -8 889 -17 1035 -20 146 -3 497 -10 780 -15 1284 -24
1637 -31 2105 -40 275 -5 658 -12 850 -15 193 -3 364 -8 382 -11 20 -3 34 -12
38 -24 5 -17 -16 -1247 -31 -1762 l-6 -218 22 0 c12 0 31 5 42 11 12 6 69 21
127 33 l106 21 8 250 c4 138 13 587 21 999 l15 749 28 27 c37 37 700 491 725
498 19 5 19 -1 14 -179 -4 -101 -11 -467 -16 -814 -6 -346 -15 -830 -20 -1075
-6 -245 -10 -466 -10 -492 0 -45 2 -49 47 -80 27 -17 72 -54 101 -82 29 -27
54 -47 57 -44 3 2 14 492 25 1089 31 1730 33 1802 40 1828 4 18 106 94 396
293 417 288 442 304 454 291 5 -4 0 -426 -11 -938 -23 -1142 -23 -1304 -6
-1309 27 -9 293 -15 305 -7 14 8 18 139 48 1753 17 885 17 909 -1 949 -12 25
-35 52 -58 67 -37 24 -46 26 -146 24 -98 -1 -959 10 -1726 23 -176 3 -633 10
-1015 15 -382 5 -816 12 -965 15 -451 9 -1951 34 -3020 50 -555 8 -1298 19
-1650 25 -352 5 -782 12 -955 15 -173 2 -329 1 -346 -4z m1306 -341 c366 -5
818 -12 1005 -15 187 -3 624 -10 970 -15 543 -9 1136 -19 2645 -45 173 -2 500
-7 725 -10 226 -3 507 -7 625 -10 118 -3 438 -8 710 -11 799 -10 1178 -19
1186 -26 4 -4 1 -14 -6 -23 -34 -40 -646 -476 -698 -496 -13 -5 -332 -3 -760
6 -405 8 -1558 30 -2562 50 -1004 19 -1917 37 -2030 40 -348 9 -2202 45 -3065
60 -443 7 -646 16 -643 26 2 7 507 376 638 467 l35 24 280 -6 c154 -4 579 -11
945 -16z m-1445 -705 c149 -3 376 -8 505 -10 129 -3 586 -12 1015 -20 2733
-52 5497 -105 5715 -110 140 -4 432 -10 648 -15 216 -4 396 -10 398 -13 3 -3
-147 -110 -333 -238 -186 -128 -350 -241 -365 -252 -26 -19 -39 -20 -440 -13
-227 3 -505 9 -618 11 -247 6 -926 20 -2000 40 -437 8 -1018 19 -1290 25 -272
6 -855 17 -1295 25 -440 8 -1153 22 -1585 30 -1342 25 -1795 36 -1803 45 -5 4
11 23 35 42 73 60 617 448 641 458 13 6 119 8 262 5 132 -3 362 -7 510 -10z"/>
<path d="M7973 15857 c-10 -12 -80 -3434 -71 -3443 9 -8 147 -13 478 -19 179
-3 496 -8 705 -11 327 -6 393 -4 473 10 291 51 545 240 672 501 171 351 127
805 -102 1050 -75 80 -181 151 -270 181 -26 8 -50 20 -53 25 -4 5 15 21 41 36
215 127 318 222 383 354 59 120 73 183 78 344 16 470 -217 795 -655 910 -134
36 -256 44 -807 54 -302 6 -620 13 -706 16 -118 4 -159 2 -166 -8z m1252 -483
c275 -14 424 -93 509 -266 100 -205 56 -447 -107 -594 -63 -57 -104 -78 -204
-105 -76 -21 -89 -22 -512 -16 -238 3 -437 9 -442 14 -9 9 7 945 16 971 4 10
67 12 322 7 175 -3 363 -8 418 -11z m-205 -1454 c372 -9 433 -18 551 -81 154
-82 247 -267 236 -469 -13 -251 -158 -425 -397 -476 -65 -14 -133 -15 -515
-10 -328 5 -443 9 -451 19 -10 9 -10 128 -3 507 6 272 12 501 14 508 5 14 79
15 565 2z"/>
<path d="M15762 15706 c-6 -6 -15 -257 -20 -561 -45 -2280 -55 -2876 -48
-2882 4 -5 115 -9 245 -11 l238 -3 6 107 c4 59 7 211 7 338 1 158 5 239 13
257 18 40 369 419 387 419 9 0 32 -30 55 -72 218 -406 569 -1045 578 -1055 7
-6 28 -14 47 -17 26 -4 448 -9 548 -6 29 0 62 -55 -541 923 -197 318 -357 583
-357 590 0 7 147 172 326 367 180 195 369 402 421 458 53 58 91 108 86 113 -4
4 -132 11 -283 15 -261 6 -276 6 -296 -12 -12 -11 -227 -261 -478 -556 -251
-295 -461 -540 -467 -543 -6 -4 -13 -4 -16 -1 -6 5 21 1574 33 1932 5 144 3
182 -8 191 -19 15 -464 25 -476 9z"/>
<path d="M11621 14819 c-52 -5 -130 -18 -175 -29 -286 -74 -551 -324 -645
-610 -93 -281 -103 -925 -19 -1198 53 -173 171 -351 300 -449 224 -173 467
-245 752 -222 210 17 381 82 532 202 205 163 315 355 358 623 46 290 41 758
-11 984 -52 228 -271 496 -499 609 -152 75 -381 110 -593 90z m303 -519 c75
-26 142 -65 179 -104 51 -55 106 -147 128 -215 40 -129 36 -641 -6 -807 -34
-130 -108 -234 -213 -298 -86 -52 -159 -70 -282 -69 -122 0 -198 24 -298 92
-99 67 -144 136 -182 277 -41 152 -38 601 6 771 21 82 70 179 117 230 63 68
172 126 277 147 55 10 216 -3 274 -24z"/>
<path d="M13955 14761 c-224 -41 -402 -145 -552 -320 -189 -222 -253 -464
-253 -961 0 -380 34 -552 151 -755 120 -211 368 -386 624 -441 100 -22 295
-29 396 -15 386 55 701 325 798 682 67 245 81 830 26 1090 -34 159 -92 269
-220 412 -202 227 -393 311 -730 322 -109 4 -162 1 -240 -14z m336 -491 c166
-32 291 -143 357 -318 24 -63 26 -81 30 -299 5 -268 -8 -460 -38 -557 -66
-212 -241 -336 -476 -338 -117 0 -205 25 -297 86 -143 95 -199 216 -218 471
-14 177 2 467 31 581 50 196 156 312 333 364 70 21 196 25 278 10z"/>
<path d="M8760 11743 c-202 -31 -310 -64 -440 -135 -166 -91 -341 -247 -435
-388 -143 -217 -183 -376 -204 -815 -28 -570 -21 -1057 18 -1247 50 -250 192
-475 406 -643 213 -167 389 -238 667 -270 315 -35 638 48 878 228 128 95 268
270 346 434 43 90 104 271 98 288 -4 8 -80 14 -263 18 -143 4 -265 5 -273 2
-7 -3 -29 -33 -47 -66 -110 -201 -281 -335 -479 -376 -98 -20 -250 -13 -342
16 -83 26 -220 108 -283 169 -56 54 -126 157 -151 221 -52 133 -71 377 -62
796 12 579 40 775 130 929 38 64 159 181 236 227 199 118 446 127 666 23 130
-61 273 -221 325 -365 12 -33 30 -64 39 -69 22 -12 519 -15 531 -3 13 13 -33
187 -77 291 -69 161 -142 269 -263 395 -180 186 -388 291 -661 332 -86 13
-297 18 -360 8z"/>
<path d="M10995 10704 c-149 -22 -292 -74 -399 -144 -92 -60 -198 -164 -194
-189 3 -20 338 -291 360 -291 8 0 34 21 58 46 90 91 183 118 410 117 278 -2
422 -60 484 -193 17 -38 21 -69 24 -190 2 -80 -1 -156 -6 -170 l-9 -25 -434 0
c-394 0 -441 -2 -509 -19 -313 -79 -507 -301 -541 -621 -29 -258 60 -476 259
-636 136 -109 285 -165 507 -189 276 -31 518 29 641 157 28 29 54 50 58 46 3
-3 6 -48 6 -98 l0 -92 137 -6 c198 -10 341 -9 348 3 10 16 37 1431 32 1670 -5
237 -16 299 -80 430 -45 94 -157 203 -265 259 -192 99 -348 132 -647 136 -115
2 -223 1 -240 -1z m725 -1463 c10 -17 3 -187 -11 -291 -32 -228 -135 -290
-482 -290 -248 0 -346 28 -443 125 -149 148 -92 379 110 444 92 30 86 30 464
27 286 -1 355 -4 362 -15z"/>
<path d="M13848 10645 c-152 -29 -281 -92 -387 -191 -32 -30 -64 -54 -70 -54
-7 0 -11 37 -11 114 0 63 -3 117 -8 120 -4 2 -111 8 -237 11 -191 6 -232 5
-241 -6 -10 -13 -22 -478 -51 -2095 l-6 -351 63 -6 c104 -11 418 -8 425 4 4 5
11 232 16 502 15 798 25 1064 44 1127 36 115 87 189 178 256 81 60 166 85 287
85 157 1 265 -44 359 -147 103 -113 125 -189 125 -444 1 -229 -12 -995 -20
-1226 -5 -120 -3 -173 4 -178 6 -4 117 -10 246 -13 l235 -6 5 24 c6 26 28
1183 30 1534 1 218 -6 282 -46 405 -80 250 -299 451 -573 524 -86 23 -273 29
-367 11z"/>
<path d="M8675 7569 c-504 -60 -839 -363 -911 -824 -37 -240 4 -477 118 -669
58 -99 211 -250 313 -310 174 -101 316 -143 680 -200 352 -56 440 -86 547
-184 193 -179 161 -531 -62 -681 -125 -83 -295 -117 -544 -108 -335 12 -620
112 -879 310 -27 20 -52 37 -57 37 -13 0 -340 -363 -340 -377 0 -7 30 -37 68
-66 221 -179 491 -311 762 -375 175 -42 297 -55 510 -55 279 0 459 31 652 113
350 150 541 468 540 900 -1 366 -197 693 -510 849 -145 73 -260 103 -595 156
-335 53 -459 98 -568 206 -73 73 -111 151 -117 244 -21 341 256 554 668 514
248 -24 462 -94 674 -219 74 -43 90 -50 101 -39 40 42 276 393 273 406 -4 22
-119 99 -238 162 -179 94 -399 164 -614 197 -127 19 -366 26 -471 13z"/>
<path d="M11170 6529 c-231 -28 -446 -130 -578 -273 -23 -25 -42 -52 -42 -61
0 -13 324 -280 356 -292 8 -3 34 16 62 45 83 86 152 110 342 119 289 14 482
-50 549 -182 23 -45 26 -64 29 -197 2 -82 1 -159 -2 -173 l-7 -26 -422 2
c-409 2 -425 2 -516 -20 -262 -64 -447 -228 -521 -461 -61 -194 -46 -404 41
-571 96 -184 276 -322 505 -385 93 -26 112 -27 309 -28 172 -1 222 2 274 17
102 28 185 74 241 133 28 30 55 54 61 54 5 0 9 -42 9 -94 0 -52 3 -97 8 -99 4
-3 113 -6 242 -8 l235 -4 6 95 c7 101 15 496 25 1245 6 402 4 472 -10 554 -29
163 -106 309 -207 392 -62 51 -199 122 -294 153 -174 56 -512 88 -695 65z
m692 -1460 c34 -18 2 -353 -42 -438 -59 -115 -210 -159 -504 -148 -179 6 -257
26 -337 87 -111 83 -151 192 -115 312 33 112 136 178 304 197 86 10 672 1 694
-10z"/>
<path d="M12660 6462 c0 -10 18 -68 39 -128 188 -526 781 -2226 781 -2238 0
-29 -147 -432 -172 -471 -65 -101 -136 -136 -293 -144 l-110 -6 -6 -30 c-4
-16 -7 -118 -8 -226 -1 -171 1 -198 15 -203 25 -10 195 -7 281 4 257 35 414
147 528 378 18 37 121 301 230 587 108 286 238 630 289 765 457 1203 628 1661
623 1673 -4 11 -56 15 -248 21 -225 6 -244 5 -259 -11 -10 -10 -40 -83 -68
-163 -146 -415 -542 -1513 -547 -1518 -15 -15 -10 -32 -424 1283 -61 193 -118
368 -126 391 l-15 41 -143 6 c-78 4 -193 7 -254 7 -103 0 -113 -2 -113 -18z"/>
</g>
</svg>
