<?xml version="1.0" standalone="no"?>
<!DOCTYPE svg PUBLIC "-//W3C//DTD SVG 20010904//EN"
 "http://www.w3.org/TR/2001/REC-SVG-20010904/DTD/svg10.dtd">
<svg version="1.0" xmlns="http://www.w3.org/2000/svg"
 width="1599.000000pt" height="869.000000pt" viewBox="0 0 1599.000000 869.000000"
 preserveAspectRatio="xMidYMid meet">

<g transform="translate(0.000000,869.000000) scale(0.100000,-0.100000)"
fill="#000000" stroke="none">
<path d="M5128 7830 c-495 -41 -973 -272 -1317 -636 -545 -576 -708 -1424
-415 -2164 241 -607 760 -1064 1389 -1225 574 -147 1175 -44 1660 283 495 333
823 869 891 1455 l6 57 407 -2 406 -3 8 -69 c36 -329 177 -680 385 -960 345
-463 863 -757 1441 -817 138 -14 407 -7 536 15 895 151 1583 860 1700 1751 17
134 20 392 5 515 -75 601 -398 1127 -900 1464 -115 77 -361 197 -492 240 -216
70 -408 100 -648 99 -559 -1 -1057 -208 -1450 -603 -310 -310 -516 -726 -573
-1153 l-13 -92 -405 -3 -406 -2 -13 92 c-49 359 -206 722 -437 1008 -78 96
-256 268 -355 343 -403 302 -909 448 -1410 407z"/>
<path d="M12100 7701 l0 -108 58 -6 c142 -15 342 -93 402 -156 75 -79 71 22
68 -1692 l-3 -1525 -30 -59 c-35 -68 -99 -117 -172 -134 -27 -6 -110 -16 -185
-23 l-138 -12 0 -103 0 -103 840 0 840 0 0 105 0 105 -41 0 c-67 0 -269 49
-336 81 -70 33 -114 80 -140 148 -16 42 -18 107 -21 789 l-3 742 33 0 c30 0
47 -16 185 -168 515 -570 978 -1157 1328 -1684 l78 -118 564 0 563 0 0 104 0
103 -75 7 c-95 9 -215 39 -282 71 -73 36 -215 139 -297 215 -38 36 -236 274
-442 532 -398 499 -591 733 -852 1031 l-164 188 258 262 c143 144 427 451 631
682 402 454 419 469 574 533 86 35 301 82 378 82 l51 0 0 110 0 110 -760 0
-760 0 0 -110 0 -110 63 0 c78 0 231 -31 283 -58 63 -32 78 -54 71 -105 -15
-106 -82 -225 -235 -417 -271 -340 -575 -651 -996 -1019 -109 -96 -144 -121
-167 -121 l-30 0 3 728 c3 662 5 732 21 779 22 64 57 107 109 134 51 26 230
67 331 75 l77 7 0 108 0 109 -840 0 -840 0 0 -109z"/>
<path d="M430 5766 l0 -1986 773 0 c802 0 886 4 1048 45 244 61 434 163 597
319 140 134 227 285 274 472 28 113 31 348 6 460 -64 284 -256 522 -536 667
-100 51 -250 107 -333 122 l-36 7 86 45 c363 190 529 493 491 898 -12 138 -39
235 -95 352 -130 268 -382 454 -715 529 -185 41 -271 46 -927 51 l-633 6 0
-1987z m1140 1464 c239 -16 390 -69 497 -176 183 -182 190 -556 14 -767 -78
-94 -155 -145 -281 -186 -123 -41 -228 -51 -517 -51 l-273 0 0 595 0 595 208
0 c114 0 272 -5 352 -10z m95 -1700 c236 -10 364 -29 478 -70 427 -156 544
-652 228 -970 -118 -119 -227 -165 -456 -190 -49 -5 -273 -13 -497 -17 l-408
-6 0 631 0 632 223 0 c122 -1 317 -5 432 -10z"/>
<path d="M1645 3359 c-314 -21 -568 -131 -795 -345 -179 -169 -299 -387 -346
-630 -23 -120 -23 -348 0 -467 88 -454 422 -815 859 -926 121 -31 217 -41 405
-41 307 1 521 44 765 157 l77 36 0 189 c0 103 -3 188 -6 188 -4 0 -46 -22 -94
-50 -173 -97 -369 -165 -548 -191 -123 -17 -367 -7 -467 20 -182 49 -350 155
-463 294 -171 211 -229 492 -162 775 71 297 305 535 617 628 121 36 351 45
504 19 140 -23 319 -83 464 -155 66 -33 124 -60 128 -60 4 0 7 82 7 183 l0
183 -108 42 c-215 85 -426 138 -583 148 -52 3 -105 6 -119 8 -14 1 -74 -1
-135 -5z"/>
<path d="M9554 3359 c-297 -21 -528 -202 -589 -461 -19 -81 -19 -238 0 -311
23 -90 70 -171 143 -249 87 -93 179 -160 398 -293 206 -124 271 -172 342 -249
167 -183 134 -400 -76 -503 -54 -26 -64 -28 -192 -28 -121 0 -143 3 -208 27
-116 42 -208 103 -314 208 l-98 97 0 -223 0 -223 73 -45 c89 -55 163 -89 276
-123 80 -25 99 -27 276 -27 182 -1 194 1 272 27 190 64 328 200 395 387 29 79
36 280 14 375 -35 146 -130 291 -263 399 -38 30 -161 110 -273 176 -113 67
-237 146 -276 175 -127 95 -183 184 -184 290 0 105 58 179 185 237 68 30 242
38 336 14 118 -31 226 -90 342 -189 l57 -49 0 199 0 198 -43 26 c-176 110
-364 154 -593 138z"/>
<path d="M15074 3359 c-297 -21 -528 -202 -589 -461 -19 -81 -19 -238 0 -311
23 -90 70 -171 143 -249 87 -93 179 -160 398 -293 206 -124 271 -172 342 -249
167 -183 134 -400 -76 -503 -54 -26 -64 -28 -192 -28 -121 0 -143 3 -208 27
-116 42 -208 103 -314 208 l-98 97 0 -223 0 -223 73 -45 c89 -55 163 -89 276
-123 80 -25 99 -27 276 -27 182 -1 194 1 272 27 190 64 328 200 395 387 29 79
36 280 14 375 -35 146 -130 291 -263 399 -38 30 -161 110 -273 176 -113 67
-237 146 -276 175 -127 95 -183 184 -184 290 0 105 58 179 185 237 68 30 242
38 336 14 118 -31 226 -90 342 -189 l57 -49 0 199 0 198 -43 26 c-176 110
-364 154 -593 138z"/>
<path d="M3352 2178 c-276 -651 -502 -1186 -502 -1190 0 -5 80 -8 178 -8 l177
0 145 348 146 347 495 3 495 2 155 -347 155 -348 181 -3 181 -2 -528 1187
-528 1188 -123 3 -124 2 -503 -1182z m823 190 l173 -388 -358 0 -359 0 73 178
c294 714 268 657 284 626 8 -16 93 -203 187 -416z"/>
<path d="M10892 2178 c-276 -651 -502 -1186 -502 -1190 0 -5 80 -8 178 -8
l177 0 145 348 146 347 495 3 495 2 155 -347 155 -348 181 -3 181 -2 -528
1187 -528 1188 -123 3 -124 2 -503 -1182z m823 190 l173 -388 -358 0 -359 0
73 178 c294 714 268 657 284 626 8 -16 93 -203 187 -416z"/>
<path d="M5410 2160 l0 -1180 165 0 165 0 2 894 3 895 775 -892 776 -892 152
-3 152 -3 0 1181 0 1180 -165 0 -165 0 -2 -904 -3 -904 -785 904 -785 903
-142 1 -143 0 0 -1180z"/>
<path d="M12310 3328 c1 -7 194 -258 430 -558 l430 -545 0 -622 0 -623 180 0
180 0 0 619 0 619 435 554 c239 304 435 556 435 561 0 4 -94 7 -209 7 l-208 0
-318 -404 -318 -405 -314 405 -315 404 -204 0 c-157 0 -204 -3 -204 -12z"/>
</g>
</svg>
