<?xml version="1.0" standalone="no"?>
<!DOCTYPE svg PUBLIC "-//W3C//DTD SVG 20010904//EN"
 "http://www.w3.org/TR/2001/REC-SVG-20010904/DTD/svg10.dtd">
<svg version="1.0" xmlns="http://www.w3.org/2000/svg"
 width="2048.000000pt" height="2048.000000pt" viewBox="0 0 2048.000000 2048.000000"
 preserveAspectRatio="xMidYMid meet">

<g transform="translate(0.000000,2048.000000) scale(0.100000,-0.100000)"
fill="#000000" stroke="none">
<path d="M0 10240 l0 -10240 10240 0 10240 0 0 10240 0 10240 -10240 0 -10240
0 0 -10240z m8055 8600 c1509 -22 2236 -34 3445 -55 1035 -18 3329 -53 3970
-61 530 -6 516 -4 559 -87 l23 -46 -25 -1321 c-18 -928 -29 -1326 -37 -1335
-9 -11 -42 -12 -158 -8 -81 3 -151 9 -156 14 -9 8 15 1631 30 2061 6 157 5
178 -9 184 -21 8 -835 -550 -847 -580 -4 -12 -20 -673 -34 -1470 -14 -798 -28
-1452 -31 -1454 -3 -3 -31 20 -62 50 -32 30 -77 67 -101 82 l-43 27 6 242 c16
610 43 2363 37 2369 -6 6 -680 -450 -735 -499 -34 -29 -33 -19 -52 -1102 -9
-503 -18 -918 -21 -922 -2 -4 -37 -12 -77 -19 -39 -6 -100 -21 -135 -32 -38
-14 -66 -18 -71 -12 -6 5 -2 365 9 899 25 1162 25 1083 -2 1095 -13 5 -286 14
-608 20 -2116 39 -4991 94 -6545 125 -646 13 -1567 30 -1998 37 -81 1 -131 -2
-138 -9 -8 -8 -27 -863 -65 -2800 -29 -1533 -76 -3967 -104 -5408 -28 -1441
-66 -3416 -85 -4390 -53 -2717 -50 -2528 -33 -2542 17 -14 33 -15 2843 -68
1007 -19 2762 -53 3900 -74 1139 -22 2174 -42 2300 -46 178 -4 235 -2 248 7
15 12 17 70 27 603 6 325 13 600 15 612 4 18 21 27 88 47 48 15 102 39 127 58
23 18 49 37 56 43 7 5 16 7 19 3 3 -3 1 -249 -6 -547 -6 -298 -8 -548 -5 -557
5 -12 9 -13 29 -2 24 14 763 633 772 647 2 5 0 23 -6 40 -8 22 -5 356 10 1208
11 648 22 1223 25 1278 3 95 7 107 54 215 84 193 154 332 161 323 5 -4 -4
-649 -19 -1433 -14 -784 -24 -1431 -22 -1438 2 -6 7 -12 11 -12 13 0 816 682
828 703 10 17 26 723 68 2932 112 5915 105 5579 121 5591 21 17 295 6 310 -12
7 -9 10 -64 7 -161 -2 -82 -15 -742 -28 -1468 -112 -5978 -132 -6952 -145
-6998 -13 -45 -91 -126 -221 -232 -98 -79 -210 -173 -1483 -1245 -257 -217
-487 -409 -510 -427 -67 -52 -106 -57 -426 -49 -304 7 -7666 149 -8650 166
-322 6 -615 15 -652 20 -79 10 -118 34 -143 87 -16 34 -17 62 -11 322 4 158
42 2158 86 4446 44 2288 96 4972 115 5965 19 993 46 2392 60 3110 34 1827 27
1644 63 1721 36 79 55 96 272 251 96 68 531 381 965 694 435 313 815 584 846
602 31 17 73 36 95 42 23 5 147 7 309 4 149 -2 864 -13 1590 -24z m625 -2991
c614 -11 717 -18 878 -65 254 -74 430 -220 537 -445 54 -114 76 -214 82 -370
8 -184 -15 -305 -83 -441 -55 -110 -200 -243 -354 -324 -38 -20 -70 -41 -70
-46 0 -5 17 -16 38 -24 227 -91 367 -234 443 -451 70 -201 66 -479 -9 -689
-78 -223 -249 -412 -467 -519 -132 -65 -230 -87 -410 -92 -174 -5 -1482 21
-1491 29 -3 4 8 721 25 1595 17 873 31 1643 31 1710 0 95 3 125 15 137 12 12
37 14 138 10 67 -2 381 -9 697 -15z m7427 -152 c8 -9 6 -269 -10 -1065 -11
-579 -17 -1055 -14 -1059 4 -3 14 0 23 8 9 7 221 254 472 549 250 294 462 541
471 548 13 11 68 13 291 7 151 -4 279 -10 283 -15 5 -4 -181 -214 -412 -466
-232 -252 -421 -464 -421 -471 0 -7 203 -343 451 -746 249 -402 454 -740 457
-751 5 -18 -6 -18 -291 -15 -247 3 -299 7 -311 19 -8 8 -150 265 -316 570
-166 305 -306 560 -311 565 -7 7 -26 -7 -57 -41 -26 -28 -114 -124 -197 -214
l-150 -163 -7 -340 c-4 -187 -9 -346 -13 -354 -4 -13 -39 -15 -240 -11 -128 2
-237 7 -241 10 -4 4 8 778 26 1720 25 1327 35 1715 45 1723 18 15 456 7 472
-8z m-4292 -888 c200 -29 351 -105 495 -249 203 -201 272 -345 301 -620 16
-155 6 -665 -15 -790 -39 -223 -97 -358 -215 -496 -91 -107 -192 -185 -316
-245 -165 -81 -226 -93 -455 -93 -234 0 -295 13 -466 99 -315 157 -486 408
-535 785 -28 214 -8 695 36 886 49 212 178 411 353 544 86 65 246 143 341 165
132 32 317 37 476 14z m2361 -40 c260 -29 445 -121 605 -300 178 -200 232
-332 260 -634 23 -253 -2 -688 -50 -876 -91 -355 -417 -637 -794 -688 -208
-29 -427 0 -586 75 -359 169 -540 433 -580 845 -14 143 -14 417 -1 569 33 369
106 547 310 749 212 210 495 298 836 260z m-5218 -3029 c204 -26 419 -110 564
-220 171 -130 326 -340 408 -552 29 -74 71 -238 64 -249 -6 -10 -464 -12 -514
-3 -21 5 -35 15 -42 33 -62 151 -109 223 -207 313 -118 110 -266 162 -456 161
-202 -1 -343 -61 -487 -205 -89 -89 -145 -192 -173 -318 -26 -119 -44 -365
-51 -713 -13 -628 22 -822 179 -993 271 -295 715 -315 987 -44 41 41 95 108
120 148 25 41 54 85 65 98 l20 24 260 -8 260 -7 3 -25 c7 -64 -124 -357 -213
-475 -185 -246 -439 -398 -752 -451 -141 -24 -379 -15 -524 19 -205 50 -348
122 -522 266 -128 107 -213 215 -287 366 -61 125 -80 182 -100 300 -39 225
-25 1252 21 1565 52 351 272 651 620 844 196 108 497 158 757 126z m2457
-1058 c302 -60 507 -187 601 -374 61 -121 76 -198 81 -413 5 -223 -23 -1671
-33 -1687 -5 -8 -72 -9 -238 -4 -126 4 -234 10 -238 12 -4 3 -8 48 -8 100 0
52 -3 94 -7 94 -3 0 -34 -26 -67 -59 -75 -71 -140 -105 -249 -130 -234 -55
-531 -26 -737 72 -191 89 -347 275 -396 470 -28 108 -23 285 10 397 73 249
245 412 511 484 76 20 102 21 513 21 411 0 434 1 444 18 6 12 9 79 7 175 -4
154 -5 158 -35 212 -58 102 -165 151 -372 171 -250 23 -418 -14 -517 -117 -24
-24 -49 -44 -57 -43 -20 1 -352 272 -356 290 -2 9 24 43 60 78 116 115 257
192 420 231 124 28 127 29 353 25 157 -3 235 -9 310 -23z m2676 -51 c206 -53
418 -213 511 -387 46 -87 85 -220 97 -332 8 -85 -15 -1689 -25 -1741 l-5 -24
-237 7 c-130 4 -240 10 -244 14 -4 4 0 329 8 722 9 393 13 754 10 801 -12 191
-89 327 -231 410 -138 80 -349 84 -496 9 -101 -52 -202 -187 -227 -305 -20
-90 -23 -152 -37 -883 -8 -397 -17 -728 -21 -734 -7 -11 -469 -6 -481 6 -3 3
4 551 17 1218 17 937 26 1216 35 1227 11 11 55 12 244 6 l231 -8 7 -25 c3 -13
3 -64 0 -111 -3 -48 -2 -93 3 -100 5 -10 22 0 62 36 132 120 268 187 433 213
86 13 257 4 346 -19z m-5209 -3061 c356 -34 651 -134 916 -312 39 -27 72 -55
72 -64 0 -16 -265 -395 -283 -405 -7 -4 -41 11 -77 33 -315 195 -769 285
-1017 202 -230 -77 -354 -254 -341 -485 6 -98 41 -173 118 -250 100 -101 238
-153 525 -199 72 -11 175 -27 230 -36 354 -57 605 -204 760 -444 101 -156 145
-295 152 -491 15 -388 -121 -686 -396 -864 -198 -128 -444 -187 -786 -188
-348 -1 -625 59 -908 196 -176 86 -442 271 -435 303 3 15 327 374 337 374 3 0
47 -30 96 -66 110 -80 319 -184 440 -219 269 -78 584 -88 792 -25 213 65 322
196 339 409 18 222 -99 388 -326 459 -82 26 -124 34 -395 77 -307 49 -455 93
-605 177 -179 100 -342 288 -408 470 -72 195 -80 436 -21 651 73 264 276 495
533 604 199 85 437 117 688 93z m2458 -1040 c252 -17 422 -61 585 -152 176
-98 278 -254 315 -480 5 -35 10 -157 10 -273 -1 -330 -28 -1586 -35 -1594 -7
-7 -465 -2 -477 6 -5 2 -8 47 -8 99 0 52 -4 94 -8 94 -4 0 -35 -26 -67 -58
-73 -71 -150 -108 -275 -134 -139 -29 -391 -21 -539 16 -232 60 -419 202 -512
391 -58 118 -73 189 -72 330 2 213 65 368 205 507 95 95 213 157 358 189 88
20 123 21 450 20 195 0 378 -4 406 -7 80 -9 84 -1 84 170 0 181 -13 230 -79
296 -88 87 -244 125 -481 117 -208 -8 -297 -39 -374 -129 -33 -39 -39 -41 -58
-29 -47 29 -348 273 -348 282 0 46 155 176 285 240 111 55 221 85 352 98 123
12 122 12 283 1z m1697 -72 c7 -6 17 -24 22 -42 38 -136 524 -1653 532 -1660
5 -5 11 -7 15 -4 3 4 140 381 305 839 164 458 304 838 311 845 19 18 498 7
505 -12 3 -8 -95 -278 -217 -601 -709 -1874 -904 -2382 -940 -2452 -126 -241
-304 -343 -630 -358 -193 -9 -180 -22 -179 190 0 95 4 195 7 222 l7 50 115 6
c92 5 124 10 160 28 56 29 116 85 140 131 24 46 160 437 160 459 0 9 -36 118
-79 241 -451 1276 -741 2115 -736 2127 5 14 35 15 248 8 137 -4 247 -11 254
-17z"/>
<path d="M6214 18527 c-49 -29 -654 -470 -654 -477 0 -11 203 -18 875 -30 828
-15 2514 -48 2795 -55 1044 -27 5374 -103 5395 -95 52 20 659 452 694 494 24
29 -3 36 -139 36 -69 0 -393 5 -720 10 -327 5 -1056 17 -1620 25 -564 8 -1407
22 -1875 30 -1209 21 -1965 33 -2785 45 -393 6 -974 15 -1290 20 -693 12 -650
12 -676 -3z"/>
<path d="M5230 17812 c-41 -21 -603 -424 -642 -460 -15 -14 -25 -28 -23 -32 3
-4 100 -10 217 -14 232 -7 191 -6 3618 -71 1295 -25 2920 -56 3610 -70 690
-14 1325 -25 1410 -25 l155 0 240 166 c132 91 296 204 365 252 l125 86 -40 7
c-22 3 -195 9 -385 13 -761 13 -6648 127 -7565 146 -539 11 -995 20 -1015 20
-20 0 -51 -8 -70 -18z"/>
<path d="M8356 15381 c-7 -11 -28 -959 -22 -970 7 -11 271 -21 601 -22 374 -2
442 15 574 137 193 178 198 522 10 705 -120 116 -209 137 -639 149 -424 12
-518 12 -524 1z"/>
<path d="M8325 13918 c-8 -25 -24 -1013 -17 -1020 5 -5 208 -11 453 -15 403
-6 451 -5 524 12 106 23 183 63 248 129 235 239 180 679 -102 820 -118 60
-165 66 -511 76 -460 13 -590 13 -595 -2z"/>
<path d="M11480 14314 c-179 -47 -290 -157 -348 -344 -49 -160 -57 -645 -13
-798 53 -184 147 -285 320 -344 86 -29 248 -31 331 -4 116 39 215 118 273 217
67 116 93 317 84 664 -4 180 -7 220 -26 278 -44 137 -126 235 -245 292 -115
55 -258 70 -376 39z"/>
<path d="M13880 14261 c-162 -52 -258 -147 -315 -308 -36 -105 -49 -231 -48
-493 0 -207 3 -244 21 -313 33 -123 68 -191 126 -245 105 -100 219 -144 368
-144 232 0 406 121 477 332 31 92 44 276 39 557 -4 205 -7 246 -25 298 -54
161 -178 278 -340 320 -79 21 -233 19 -303 -4z"/>
<path d="M10800 9241 c-83 -23 -116 -40 -162 -86 -74 -74 -89 -215 -34 -309
33 -56 97 -112 161 -141 177 -79 593 -63 715 27 38 28 77 101 94 179 18 81 29
309 16 329 -8 13 -62 15 -367 17 -319 2 -365 1 -423 -16z"/>
<path d="M11025 5079 c-195 -29 -292 -113 -303 -260 -10 -140 84 -258 248
-310 83 -27 337 -38 461 -19 241 35 296 112 314 445 6 96 4 123 -7 132 -17 14
-631 24 -713 12z"/>
</g>
</svg>
